{
    "asset" : {
        "generator" : "Khronos glTF Blender I/O v3.4.50",
        "version" : "2.0"
    },
    "scene" : 0,
    "scenes" : [
        {
            "name" : "Scene",
            "nodes" : [
                0
            ]
        }
    ],
    "nodes" : [
        {
            "mesh" : 0,
            "name" : "vase",
            "scale" : [
                1.820066213607788,
                1.820066213607788,
                1.820066213607788
            ]
        }
    ],
    "materials" : [
        {
            "doubleSided" : true,
            "name" : "Material",
            "pbrMetallicRoughness" : {
                "baseColorFactor" : [
                    0.1386004239320755,
                    0.8000000715255737,
                    0.5866356492042542,
                    1
                ],
                "roughnessFactor" : 0.19655171036720276
            }
        }
    ],
    "meshes" : [
        {
            "name" : "Mesh",
            "primitives" : [
                {
                    "attributes" : {
                        "POSITION" : 0,
                        "TEXCOORD_0" : 1,
                        "NORMAL" : 2
                    },
                    "indices" : 3,
                    "material" : 0
                }
            ]
        }
    ],
    "accessors" : [
        {
            "bufferView" : 0,
            "componentType" : 5126,
            "count" : 3767,
            "max" : [
                1.0058883428573608,
                0.9152325391769409,
                1.0058883428573608
            ],
            "min" : [
                -1.0058883428573608,
                -1.1562554836273193,
                -1.0058883428573608
            ],
            "type" : "VEC3"
        },
        {
            "bufferView" : 1,
            "componentType" : 5126,
            "count" : 3767,
            "type" : "VEC2"
        },
        {
            "bufferView" : 2,
            "componentType" : 5126,
            "count" : 3767,
            "type" : "VEC3"
        },
        {
            "bufferView" : 3,
            "componentType" : 5123,
            "count" : 20736,
            "type" : "SCALAR"
        }
    ],
    "bufferViews" : [
        {
            "buffer" : 0,
            "byteLength" : 45204,
            "byteOffset" : 0,
            "target" : 34962
        },
        {
            "buffer" : 0,
            "byteLength" : 30136,
            "byteOffset" : 45204,
            "target" : 34962
        },
        {
            "buffer" : 0,
            "byteLength" : 45204,
            "byteOffset" : 75340,
            "target" : 34962
        },
        {
            "buffer" : 0,
            "byteLength" : 41472,
            "byteOffset" : 120544,
            "target" : 34963
        }
    ],
    "buffers" : [
        {
            "byteLength" : 162016,
            "uri" : "vase.bin"
        }
    ]
}
